<?xml version="1.0" encoding="UTF-8"?>
<svg width="14px" height="15px" viewBox="0 0 14 15" version="1.1" xmlns="http://www.w3.org/2000/svg" xmlns:xlink="http://www.w3.org/1999/xlink">
    <title>汇总备份</title>
    <g id="页面-1" stroke="none" stroke-width="1" fill="none" fill-rule="evenodd">
        <g id="Apple-TV" transform="translate(-568.000000, -506.000000)" fill="#1890FF" fill-rule="nonzero">
            <g id="汇总备份" transform="translate(568.000000, 506.000000)">
                <path d="M7,14.008547 C3.13960114,14.008547 0,10.8689459 0,7.00854701 C0,5.44159544 0.507122507,3.95726496 1.46438746,2.72079772 C1.63247863,2.5042735 1.94586895,2.46438746 2.16524217,2.63247863 C2.38176638,2.8005698 2.42165242,3.11396011 2.25356125,3.33333333 C1.43019943,4.39316239 0.997150997,5.66381766 0.997150997,7.00854701 C0.997150997,10.3190883 3.68945869,13.011396 7,13.011396 C10.3105413,13.011396 13.002849,10.3190883 13.002849,7.00854701 C13.002849,5.66381766 12.5669516,4.39316239 11.7464387,3.33333333 C11.5783476,3.11680912 11.6182336,2.8034188 11.8347578,2.63247863 C12.0512821,2.46438746 12.3646724,2.5042735 12.5356125,2.72079772 C13.4957265,3.95726496 14,5.43874644 14,7.00854701 C14,10.8689459 10.8603989,14.008547 7,14.008547 Z" id="路径"></path>
                <path d="M8.24216524,11.6096866 L5.75783476,11.6096866 C4.48433048,11.6096866 3.45014245,10.5754986 3.45014245,9.3019943 L3.45014245,5.94017094 C3.45014245,4.66666667 4.48433048,3.63247863 5.75783476,3.63247863 L8.24216524,3.63247863 C9.51566952,3.63247863 10.5498575,4.66666667 10.5498575,5.94017094 L10.5498575,9.3019943 C10.5498575,10.5726496 9.51566952,11.6096866 8.24216524,11.6096866 L8.24216524,11.6096866 Z M5.75783476,4.48717949 C4.95726496,4.48717949 4.3048433,5.13960114 4.3048433,5.94017094 L4.3048433,9.3019943 C4.3048433,10.1025641 4.95726496,10.7549858 5.75783476,10.7549858 L8.24216524,10.7549858 C9.04273504,10.7549858 9.6951567,10.1025641 9.6951567,9.3019943 L9.6951567,5.94017094 C9.6951567,5.13960114 9.04273504,4.48717949 8.24216524,4.48717949 L5.75783476,4.48717949 L5.75783476,4.48717949 Z" id="形状"></path>
                <g id="编组" transform="translate(5.290598, 5.626781)">
                    <path d="M2.35042735,0.854700855 L0.427350427,0.854700855 C0.190883191,0.854700855 4.04867656e-15,0.663817664 4.04867656e-15,0.427350427 C4.04867656e-15,0.190883191 0.190883191,0 0.427350427,0 L2.35042735,0 C2.58689459,0 2.77777778,0.190883191 2.77777778,0.427350427 C2.77777778,0.663817664 2.58689459,0.854700855 2.35042735,0.854700855 Z" id="路径"></path>
                    <path d="M2.98860399,2.39031339 L0.427350427,2.39031339 C0.190883191,2.39031339 2.02433828e-15,2.1994302 2.02433828e-15,1.96296296 C2.02433828e-15,1.72649573 0.190883191,1.53561254 0.427350427,1.53561254 L2.98860399,1.53561254 C3.22507123,1.53561254 3.41595442,1.72649573 3.41595442,1.96296296 C3.41595442,2.1994302 3.22507123,2.39031339 2.98860399,2.39031339 Z" id="路径"></path>
                    <path d="M2.75213675,3.92592593 L0.427350427,3.92592593 C0.190883191,3.92592593 3.03650742e-15,3.73504274 3.03650742e-15,3.4985755 C3.03650742e-15,3.26210826 0.190883191,3.07122507 0.427350427,3.07122507 L2.75213675,3.07122507 C2.98860399,3.07122507 3.17948718,3.26210826 3.17948718,3.4985755 C3.17948718,3.73504274 2.98860399,3.92592593 2.75213675,3.92592593 Z" id="路径"></path>
                </g>
                <path d="M11.1054131,3.56125356 C10.1225071,3.56125356 9.32478632,2.76353276 9.32478632,1.78062678 C9.32478632,0.797720798 10.1225071,0 11.1054131,0 C12.0883191,0 12.8860399,0.797720798 12.8860399,1.78062678 C12.8860399,2.76353276 12.0883191,3.56125356 11.1054131,3.56125356 Z M11.1054131,0.997150997 C10.6723647,0.997150997 10.3219373,1.34757835 10.3219373,1.78062678 C10.3219373,2.21367521 10.6723647,2.56410256 11.1054131,2.56410256 C11.5384615,2.56410256 11.8888889,2.21367521 11.8888889,1.78062678 C11.8888889,1.34757835 11.5384615,0.997150997 11.1054131,0.997150997 Z" id="形状"></path>
            </g>
        </g>
    </g>
</svg>