<svg xmlns="http://www.w3.org/2000/svg" viewBox="0 0 281 286" width="281" height="286">
	<defs>
		<linearGradient id="grd1" gradientUnits="userSpaceOnUse"  x1="263.426" y1="266.026" x2="17.974" y2="20.574">
			<stop offset="0" stop-color="#b680ff"  />
			<stop offset="0.521" stop-color="#1255ff"  />
			<stop offset="1" stop-color="#19abff"  />
		</linearGradient>
	</defs>
	<style>
		tspan { white-space:pre }
		.shp0 { fill: url(#grd1) } 
		.shp1 { fill: #ffffff } 
		.shp2 { fill: #282828 } 
	</style>
	<path id="Layer" class="shp0" d="M221 283.6L60.4 283.6C27.3 283.6 0.4 256.7 0.4 223.6L0.4 63C0.4 29.9 27.3 3 60.4 3L221 3C254.1 3 281 29.9 281 63L281 223.6C281 256.7 254.1 283.6 221 283.6Z" />
	<path id="Layer" fill-rule="evenodd" class="shp1" d="M140.2 223.6C95.8 223.6 59.9 187.7 59.8 143.2C59.7 98.8 95.7 62.7 140.2 62.6C152.2 62.6 164 65.4 174.7 70.6L153.9 91.3C149.4 90 144.8 89.4 140.2 89.3C110.6 89.3 86.5 113.2 86.5 142.9C86.5 172.4 110.6 196.5 140.2 196.5C169.8 196.5 193.9 172.6 193.9 142.9C193.9 138.3 193.2 133.7 191.9 129.2L212.7 108.5C218 119.6 220.8 131.8 220.7 144C220.5 188.2 184.4 223.9 140.2 223.6ZM207.3 49.4L234.2 76.3L167 116.4L207.3 49.4ZM140.2 116.4C155 116.4 167 128.4 167.1 143.3C167.1 158.2 155.1 170.2 140.2 170.2C125.3 170.2 113.3 158.1 113.3 143.3C113.3 128.4 125.4 116.4 140.2 116.4Z" />
	<g id="Layer">
		<g id="四角星">
			<path id="路径" fill-rule="evenodd" class="shp2" d="M527.74 82.22C526.74 79.42 525.24 79.42 524.24 82.22L518.94 97.92C517.94 100.72 514.94 103.82 512.14 104.72L496.54 110.02C493.74 111.02 493.74 112.52 496.54 113.52L511.94 118.92C514.74 119.92 517.84 122.92 518.74 125.72L524.14 141.42C525.14 144.22 526.64 144.22 527.64 141.42L532.94 125.82C533.94 123.02 536.94 119.92 539.74 119.02L555.54 113.62C558.34 112.62 558.34 111.12 555.54 110.12L540.04 104.92C537.24 103.92 534.14 100.92 533.24 98.22C533.14 98.02 527.74 82.22 527.74 82.22Z" />
		</g>
		<g id="Layer">
			<g id="Layer">
				<path id="path-34_10_" fill-rule="evenodd" class="shp2" d="M460.1 207.6L391.8 207.6L408.9 85.1L403 78.1L443.3 78.1L437.8 116.6L471.3 102.6L468.4 123.6L434.9 137.6L428.1 186.6L456.1 186.6L464 179.6L460.1 207.6ZM370.2 210.7L336.9 211L340.3 186.8L310.1 190.3L312.7 172.7L342.9 169.2L348.2 130.7L320.4 130.7L322.8 113.1L350.8 113.1L354.7 85.1L348.8 78.1L389 78.1L370.2 210.7ZM591.7 210.7L556.8 210.7L562.9 167.4L485.3 172.6L487.7 155L565.3 149.8L574.5 84.8L568.6 78L610.6 78L600.6 147.4L643.2 144.5L640.8 162.1L598.2 165L591.7 210.7ZM771.1 197.9L672 197.9C670.2 197.9 668.7 197.5 667.2 196.9C665.7 196.3 664.5 195.4 663.4 194.3C662.3 193.1 661.5 191.8 661.2 190.3C660.9 188.8 660.9 187.1 661.4 185.4L673.8 93.4L772.9 93.4C774.7 93.4 776.2 93.7 777.7 94.4C779.2 95 780.4 95.9 781.5 97C782.6 98.1 783.4 99.4 783.7 100.9C784 102.4 784 104.1 783.5 105.9L771.1 197.9ZM748 111.4L705.7 111.4L696.8 180.3L737.5 180.3L748 111.4ZM837.7 197.9L804.2 197.9L816.3 100.6L811 93.6L853.5 93.6L848.2 125.2L885.5 93.6L926 93.6L866 146.7L919.1 197.9L876.7 197.9L843 162.5L837.7 197.9ZM981.9 197.9L946.5 197.7L958.9 100.4L953.6 93.4L1068.6 93.4L1061.6 146.5C1061.6 148.3 1061.2 149.9 1060.4 151.4C1059.5 153 1058.5 154.3 1057.1 155.4C1055.6 156.5 1054.1 157.3 1052.5 158C1050.9 158.7 1049.1 159 1047.3 159L1024.2 159L1061.5 197.9L1022.6 197.9L987.2 159L981.9 197.9ZM1031.5 111.4L992.6 111.4L988.9 141.4L1028 141.4L1031.5 111.4Z" />
			</g>
			<g id="Layer">
				<path id="Layer" fill-rule="evenodd" class="shp2" d="M460.1 207.6L391.8 207.6L408.9 85.1L403 78.1L443.3 78.1L437.8 116.6L471.3 102.6L468.4 123.6L434.9 137.6L428.1 186.6L456.1 186.6L464 179.6L460.1 207.6ZM370.2 210.7L336.9 211L340.3 186.8L310.1 190.3L312.7 172.7L342.9 169.2L348.2 130.7L320.4 130.7L322.8 113.1L350.8 113.1L354.7 85.1L348.8 78.1L389 78.1L370.2 210.7ZM591.7 210.7L556.8 210.7L562.9 167.4L485.3 172.6L487.7 155L565.3 149.8L574.5 84.8L568.6 78L610.6 78L600.6 147.4L643.2 144.5L640.8 162.1L598.2 165L591.7 210.7ZM771.1 197.9L672 197.9C670.2 197.9 668.7 197.5 667.2 196.9C665.7 196.3 664.5 195.4 663.4 194.3C662.3 193.1 661.5 191.8 661.2 190.3C660.9 188.8 660.9 187.1 661.4 185.4L673.8 93.4L772.9 93.4C774.7 93.4 776.2 93.7 777.7 94.4C779.2 95 780.4 95.9 781.5 97C782.6 98.1 783.4 99.4 783.7 100.9C784 102.4 784 104.1 783.5 105.9L771.1 197.9ZM748 111.4L705.7 111.4L696.8 180.3L737.5 180.3L748 111.4ZM837.7 197.9L804.2 197.9L816.3 100.6L811 93.6L853.5 93.6L848.2 125.2L885.5 93.6L926 93.6L866 146.7L919.1 197.9L876.7 197.9L843 162.5L837.7 197.9ZM981.9 197.9L946.5 197.7L958.9 100.4L953.6 93.4L1068.6 93.4L1061.6 146.5C1061.6 148.3 1061.2 149.9 1060.4 151.4C1059.5 153 1058.5 154.3 1057.1 155.4C1055.6 156.5 1054.1 157.3 1052.5 158C1050.9 158.7 1049.1 159 1047.3 159L1024.2 159L1061.5 197.9L1022.6 197.9L987.2 159L981.9 197.9ZM1031.5 111.4L992.6 111.4L988.9 141.4L1028 141.4L1031.5 111.4Z" />
			</g>
		</g>
	</g>
</svg>