<?xml version="1.0" standalone="no"?><!DOCTYPE svg PUBLIC "-//W3C//DTD SVG 1.1//EN" "http://www.w3.org/Graphics/SVG/1.1/DTD/svg11.dtd"><svg t="1691993568058" class="icon" viewBox="0 0 1024 1024" version="1.1" xmlns="http://www.w3.org/2000/svg" p-id="14806" xmlns:xlink="http://www.w3.org/1999/xlink" width="200" height="200"><path d="M512.268258 172.568704l67.171997 208.095478c10.586974 32.796071 40.853024 54.831107 75.314956 54.831107h0.152559l218.668118-0.419793-177.152639 128.189418c-27.976643 20.243237-39.560881 55.896972-28.826468 88.71864l67.971651 207.836434-176.658102-128.870302c-13.635081-9.947046-29.764346-15.204697-46.642072-15.204697s-33.005967 5.257651-46.642072 15.204697L288.96706 859.818964l67.971651-207.836434c10.734414-32.821668-0.849825-68.475403-28.826468-88.717616l-177.152638-128.190442 218.668117 0.419793h0.152559c34.461932 0 64.729006-22.035036 75.314956-54.831107l67.173021-208.094454m0-77.408802c-13.124162 0-26.2473 7.553202-31.124066 22.658582l-80.240869 248.580927a32.704945 32.704945 0 0 1-31.123042 22.658583h-0.063481l-261.210553-0.501704h-0.071672c-31.691299 0-44.862559 40.605244-19.164061 59.201049l211.618666 153.129218a32.702897 32.702897 0 0 1 11.911882 36.662262l-81.196154 248.271713c-7.514294 22.974963 10.740557 43.02059 31.200858 43.02059 6.41157 0 13.040203-1.968931 19.158942-6.433072L492.993617 768.465868a32.661942 32.661942 0 0 1 19.274641-6.283584 32.66399 32.66399 0 0 1 19.274641 6.283584l211.028909 153.942182c6.120786 4.465164 12.746348 6.433071 19.158942 6.433072 20.458253 0 38.713104-20.047675 31.200858-43.02059l-81.196154-248.271713a32.704945 32.704945 0 0 1 11.911881-36.662262l211.618667-153.129218c25.700546-18.596829 12.531332-59.201049-19.164061-59.201049h-0.071672l-261.210553 0.501704h-0.063481a32.705969 32.705969 0 0 1-31.123042-22.658583l-80.241893-248.580927c-4.875742-15.106404-17.999904-22.658582-31.123042-22.658582z" fill="" p-id="14807"></path></svg>