<?xml version="1.0" standalone="no"?><!DOCTYPE svg PUBLIC "-//W3C//DTD SVG 1.1//EN" "http://www.w3.org/Graphics/SVG/1.1/DTD/svg11.dtd"><svg t="1711533374545" class="icon" viewBox="0 0 1024 1024" version="1.1" xmlns="http://www.w3.org/2000/svg" p-id="47020" xmlns:xlink="http://www.w3.org/1999/xlink" width="200" height="200"><path d="M879.594611 101.174284H144.404366c-35.379789 0-64.163345 28.78151-64.163345 64.161298v530.973121c0 35.380812 28.783557 64.162322 64.163345 64.162322h289.141306v99.342565H308.715619c-12.879332 0-23.318078 19.650549-23.318079 32.528858s10.438747 30.482245 23.318079 30.482245H716.307687c12.880355 0 23.321148-17.603937 23.321149-30.482245s-10.440793-32.528857-23.321149-32.528858l-126.195143-0.490163v-99.342566l289.484113 0.490164c35.379789 0 64.162322-28.78151 64.162322-64.162322v-530.973121c-0.001023-35.379789-28.783557-64.161299-64.164368-64.161298zM160.050718 162.217568h703.898564c9.252735 0 16.781198 7.439436 16.781199 16.583701v403.062915H143.270543V178.800245c0-9.144264 7.52744-16.582677 16.780175-16.582677z m369.476982 697.597046h-35.053354v-99.342566h35.053354v99.342566z m338.657047-158.142764H155.815253c-9.363252 0-16.981766-6.496971-16.981766-14.483875V638.945227h746.334049v48.242748c0 7.986905-7.619538 14.483876-16.982789 14.483875z" fill="" p-id="47021"></path></svg>